HIERARCHY
ROOT Hips
{
  OFFSET 0.000000 0.000000 0.000000
  CHANNELS 6 Xposition Yposition Zposition Xrotation Yrotation Zrotation
  JOINT Spine
  {
    OFFSET 1.602333 -23.943604 -2.409543
    CHANNELS 3 Xrotation Yrotation Zrotation
    JOINT Chest
    {
      OFFSET 1.602333 -23.943604 -2.409543
      CHANNELS 3 Xrotation Yrotation Zrotation
      JOINT Neck
      {
        OFFSET 3.806094 -17.923844 -5.988769
        CHANNELS 3 Xrotation Yrotation Zrotation
        JOINT Head
        {
          OFFSET 6.327906 5.395311 12.000731
          CHANNELS 3 Xrotation Yrotation Zrotation
          End Site
          {
            OFFSET 0.0 5.0 2.0
          }
        }
      }
      JOINT LeftShoulder
      {
        OFFSET 15.502173 1.195735 6.811843
        CHANNELS 3 Xrotation Yrotation Zrotation
        JOINT LeftArm
        {
          OFFSET 3.049198 17.579728 -11.048325
          CHANNELS 3 Xrotation Yrotation Zrotation
          JOINT LeftForeArm
          {
            OFFSET 2.612628 -12.912878 -19.404069
            CHANNELS 3 Xrotation Yrotation Zrotation
            JOINT LeftHand
            {
              OFFSET -8.000000 0.000000 3.000000
              CHANNELS 3 Xrotation Yrotation Zrotation
              End Site
              {
                OFFSET -3.0 0.0 2.0
              }
            }
          }
        }
      }
      JOINT RightShoulder
      {
        OFFSET -15.502173 -1.195735 -6.811843
        CHANNELS 3 Xrotation Yrotation Zrotation
        JOINT RightArm
        {
          OFFSET 1.860282 20.699400 -12.838847
          CHANNELS 3 Xrotation Yrotation Zrotation
          JOINT RightForeArm
          {
            OFFSET 18.567713 -8.436623 -13.447486
            CHANNELS 3 Xrotation Yrotation Zrotation
            JOINT RightHand
            {
              OFFSET 8.000000 0.000000 3.000000
              CHANNELS 3 Xrotation Yrotation Zrotation
              End Site
              {
                OFFSET 3.0 0.0 2.0
              }
            }
          }
        }
      }
    }
  }
  JOINT LeftUpLeg
  {
    OFFSET 12.055773 0.411694 2.557491
    CHANNELS 3 Xrotation Yrotation Zrotation
    JOINT LeftLeg
    {
      OFFSET 12.719119 36.398606 -2.685860
      CHANNELS 3 Xrotation Yrotation Zrotation
      JOINT LeftFoot
      {
        OFFSET 0.000000 -8.000000 5.000000
        CHANNELS 3 Xrotation Yrotation Zrotation
        JOINT LeftToeBase
        {
          OFFSET 0.000000 -1.000000 8.000000
          CHANNELS 3 Xrotation Yrotation Zrotation
          End Site
          {
            OFFSET 0.0 -1.0 3.0
          }
        }
      }
    }
  }
  JOINT RightUpLeg
  {
    OFFSET -12.055773 -0.411694 -2.557491
    CHANNELS 3 Xrotation Yrotation Zrotation
    JOINT RightLeg
    {
      OFFSET -15.729471 35.705056 0.246896
      CHANNELS 3 Xrotation Yrotation Zrotation
      JOINT RightFoot
      {
        OFFSET 0.000000 -8.000000 5.000000
        CHANNELS 3 Xrotation Yrotation Zrotation
        JOINT RightToeBase
        {
          OFFSET 0.000000 -1.000000 8.000000
          CHANNELS 3 Xrotation Yrotation Zrotation
          End Site
          {
            OFFSET 0.0 -1.0 3.0
          }
        }
      }
    }
  }
}
MOTION
Frames: 12
Frame Time: 0.066667
-0.993691 1.491410 23.000000 0.722522 -20.556278 -0.103429 -1.036563 -0.995283 10.157643 3.398856 -37.171981 -1.195411 -56.822889 41.939101 -19.313168 0.000000 0.000000 0.000000 41.868650 0.159496 30.919118 39.738121 2.619118 3.841700 -137.245895 4.530455 -161.830682 0.000000 0.000000 0.000000 34.013493 -4.312719 -6.370797 -30.873792 -51.259111 35.234501 1.667307 19.412704 -7.639801 0.000000 0.000000 0.000000 -4.499403 0.991455 -5.031054 -131.579218 33.095485 -4.658322 -60.000000 30.000000 -17.359539 0.000000 0.000000 0.000000 14.016087 6.449576 -1.585899 -94.676152 -44.585493 -8.822677 -60.000000 -19.086406 8.572871 0.000000 0.000000 0.000000
-0.996165 1.350926 24.000000 0.046513 -19.050335 1.601291 0.366433 -1.234043 12.156703 -1.498790 -27.333972 5.583159 -87.393864 47.758964 -38.662501 0.000000 0.000000 0.000000 42.619109 0.407160 33.565433 94.541420 -13.702824 6.424342 -34.846748 -29.403344 -136.591677 0.000000 0.000000 0.000000 -8.648866 1.151491 0.457471 3.667120 -13.016588 14.812338 -0.034566 37.783763 0.919092 0.000000 0.000000 0.000000 -6.385290 1.058026 -8.867163 -123.648909 23.457543 -1.592524 -60.000000 30.000000 -20.784984 0.000000 0.000000 0.000000 11.638071 5.214528 -0.540988 -92.135104 -42.682759 -9.435804 -60.000000 -22.406090 10.298599 0.000000 0.000000 0.000000
-0.958924 1.196944 25.000000 -1.084660 -17.795339 4.702811 -1.355280 -1.307916 13.776854 -5.181932 -17.798211 11.649504 -100.106090 48.699590 -53.925236 0.000000 0.000000 0.000000 32.113556 3.276064 27.224836 25.660194 -19.519121 10.728494 82.424231 -37.907634 175.260887 0.000000 0.000000 0.000000 -12.470005 2.337637 1.441651 7.569175 -6.168253 14.330239 0.001809 40.853169 -0.604493 0.000000 0.000000 0.000000 -4.573676 0.897196 -6.043683 -112.894872 23.514804 0.644195 -60.000000 30.000000 -22.507110 0.000000 0.000000 0.000000 4.138889 1.843808 -0.386345 -91.569939 -37.104227 -8.307051 -60.000000 -22.739707 10.678740 0.000000 0.000000 0.000000
-0.883455 1.031003 26.000000 -1.234160 -13.581448 5.229459 3.097773 -1.737902 15.231628 -4.937566 -6.334193 11.257112 -113.066420 46.950406 -61.960964 0.000000 0.000000 0.000000 2.374807 -1.009620 -1.007588 13.376811 -11.596489 7.681659 -18.602409 -49.452293 115.493712 0.000000 0.000000 0.000000 -19.735861 8.479416 7.216304 11.379526 -1.787313 15.946241 0.164422 45.215599 3.348828 0.000000 0.000000 0.000000 -3.315632 0.801784 -3.410861 -105.770889 22.816557 2.067175 -60.000000 30.000000 -24.934624 0.000000 0.000000 0.000000 -1.495904 -0.663334 -0.501631 -95.999731 -27.039461 -4.852785 -60.000000 -29.720960 14.823266 0.000000 0.000000 0.000000
-0.772764 0.854760 27.000000 -1.293854 -12.352214 5.456056 4.496118 -1.745449 14.608291 -4.270819 -2.874161 9.814346 -116.968305 46.142535 -63.681917 0.000000 0.000000 0.000000 -10.500505 -12.132044 -18.778905 -10.645599 -4.012899 1.722929 0.079711 -41.044178 83.003264 0.000000 0.000000 0.000000 -20.638610 9.676397 8.293430 8.912931 -0.515978 12.053961 0.074775 39.668462 -4.518488 0.000000 0.000000 0.000000 -3.227110 0.726496 -3.866856 -105.124904 27.773471 2.693561 -60.000000 30.000000 -25.321802 0.000000 0.000000 0.000000 -0.108899 -0.034521 -2.306542 -97.992732 -21.781263 -3.490199 -60.000000 -23.827837 11.991377 0.000000 0.000000 0.000000
-0.631267 0.669976 28.000000 -1.262634 -11.581903 5.381828 6.110163 -1.604020 13.040737 -4.569441 -1.972380 10.462750 -111.482059 47.315780 -62.423634 0.000000 0.000000 0.000000 -8.996544 -4.702484 -8.606621 -3.156362 -6.900986 4.479524 -25.136885 -50.640580 123.698411 0.000000 0.000000 0.000000 -15.010908 14.084284 15.166997 6.625138 -2.823620 10.710462 0.601590 35.402025 -9.462594 0.000000 0.000000 0.000000 -3.165678 0.698043 -3.956517 -104.655390 27.174146 2.747679 -60.000000 30.000000 -25.758425 0.000000 0.000000 0.000000 -0.686772 -0.303576 -4.219343 -99.990981 -19.847592 -2.816750 -60.000000 -24.338902 12.473291 0.000000 0.000000 0.000000
-0.464602 0.478499 29.000000 -1.279570 -10.538791 5.474935 6.040215 -1.469602 12.190120 -4.596086 -2.936528 10.527518 -112.723198 46.900658 -59.366109 0.000000 0.000000 0.000000 5.607243 -5.372257 -7.982555 10.646574 -4.353011 3.717188 -34.062868 -56.527902 112.754215 0.000000 0.000000 0.000000 -11.197524 17.900901 21.508228 7.548609 -3.624240 12.452710 0.675785 36.333501 -12.596036 0.000000 0.000000 0.000000 -2.675089 0.560324 -3.798280 -105.405540 30.182861 2.861550 -60.000000 30.000000 -24.492599 0.000000 0.000000 0.000000 -0.431663 -0.177112 -5.285582 -99.116855 -15.542035 -2.319002 -60.000000 -28.112107 15.321637 0.000000 0.000000 0.000000
-0.279415 0.282240 30.000000 -1.228867 -8.367402 5.380797 7.829660 -0.526775 6.203574 -2.977366 -0.562025 6.837278 -121.440369 45.045187 -70.334635 0.000000 0.000000 0.000000 11.282051 2.325453 8.299837 14.942193 2.168190 0.793398 -52.876744 -68.060618 102.077121 0.000000 0.000000 0.000000 -3.485838 11.258140 16.217344 7.944628 6.768092 6.398060 -0.923304 43.716504 -29.337489 0.000000 0.000000 0.000000 -0.184946 -0.026097 -1.204361 -104.982908 36.558433 3.645556 -60.000000 30.000000 -21.745143 0.000000 0.000000 0.000000 13.574146 7.409863 -9.084087 -101.241342 -16.676263 -2.173263 -60.000000 -29.389027 14.054735 0.000000 0.000000 0.000000
-0.083089 0.083161 31.000000 -0.965613 -5.574656 4.473595 7.337495 0.351430 0.864091 -1.108889 3.154839 2.072368 -124.777880 44.140935 -69.248147 0.000000 0.000000 0.000000 1.228312 0.023053 0.382441 13.140361 12.153915 -4.522373 -9.954237 -53.885729 55.749407 0.000000 0.000000 0.000000 -1.661402 5.464142 8.232216 5.126949 8.319835 1.974163 -0.847832 43.425827 -30.345481 0.000000 0.000000 0.000000 -5.710308 1.865146 -1.071589 -104.976595 36.928388 3.687216 -60.000000 30.000000 -18.570130 0.000000 0.000000 0.000000 7.714079 4.210104 -8.891446 -101.843512 -13.072340 -1.628921 -60.000000 -30.000000 14.371456 0.000000 0.000000 0.000000
0.116549 -0.116748 32.000000 -0.690287 4.323299 3.082506 4.460008 0.871327 -4.062369 0.822703 9.801765 -4.372589 -134.928872 41.754885 -64.651571 0.000000 0.000000 0.000000 -10.639676 -10.122902 -16.045199 8.670342 6.144934 -2.322979 -2.781600 -46.012757 44.734338 0.000000 0.000000 0.000000 0.003171 4.059997 6.508849 5.031601 14.114859 -1.105646 -0.854580 43.284849 -32.492253 0.000000 0.000000 0.000000 -9.911116 3.334764 -0.923616 -104.667673 38.579454 3.973825 -60.000000 26.023691 -11.202134 0.000000 0.000000 0.000000 6.587678 3.597644 -8.820919 -101.691557 -8.449505 -1.061651 -60.000000 -30.000000 16.219091 0.000000 0.000000 0.000000
0.311541 -0.315491 33.000000 -0.535396 9.879467 1.492308 7.078486 1.697722 -7.409560 3.496144 12.612265 -12.938223 -134.968661 41.519088 -66.698843 0.000000 0.000000 0.000000 -14.396102 -33.756553 -46.440773 10.797700 -26.437441 16.207568 -156.124405 -30.656743 -177.275972 0.000000 0.000000 0.000000 -9.661543 3.633567 3.636193 5.642283 18.787281 -2.510692 -2.394534 46.770248 -33.912375 0.000000 0.000000 0.000000 -6.626487 2.366244 0.275946 -105.940516 42.179211 3.883859 -60.000000 20.051543 -8.665624 0.000000 0.000000 0.000000 20.097128 10.683874 -7.783249 -102.770626 -9.636753 -1.119200 -60.000000 -30.000000 19.399176 0.000000 0.000000 0.000000
0.494113 -0.511082 34.000000 -0.527446 17.039512 -1.214591 7.982224 2.366818 -10.538419 4.979761 16.042061 -19.423748 -134.081951 41.586293 -68.373485 0.000000 0.000000 0.000000 -19.342634 -29.952329 -39.262517 28.860936 -21.702298 11.256734 158.585434 -47.627495 -178.277660 0.000000 0.000000 0.000000 -10.907237 2.341958 1.700584 3.749078 17.176355 -4.157966 -1.614784 45.125002 -32.746177 0.000000 0.000000 0.000000 -4.317865 1.763226 2.129651 -107.082348 47.985434 3.970657 -59.021818 16.804622 -6.962991 0.000000 0.000000 0.000000 21.275181 11.078042 -6.799470 -106.607509 -7.469014 -0.613729 -60.000000 -30.000000 20.516877 0.000000 0.000000 0.000000
